<?xml version="1.0" standalone="no"?>
<!DOCTYPE svg PUBLIC "-//W3C//DTD SVG 20010904//EN"
 "http://www.w3.org/TR/2001/REC-SVG-20010904/DTD/svg10.dtd">
<svg version="1.0" xmlns="http://www.w3.org/2000/svg"
 width="1024.000000pt" height="848.000000pt" viewBox="0 0 1024.000000 848.000000"
 preserveAspectRatio="xMidYMid meet">

<g transform="translate(0.000000,848.000000) scale(0.100000,-0.100000)"
fill="#000000" stroke="none">
<path d="M5967 7194 c-1 -1 -335 -5 -741 -8 -663 -5 -816 -10 -1061 -34 l-70
-7 -5 -75 -5 -75 55 5 55 5 -47 3 c-46 3 -48 5 -48 32 0 22 4 28 15 23 20 -7
197 16 250 32 28 9 44 10 53 3 9 -8 14 -3 18 19 6 29 8 31 75 37 38 3 193 3
344 -1 201 -4 275 -3 275 5 0 8 46 10 163 7 89 -3 200 -4 247 -3 159 5 605 -4
610 -13 3 -4 11 -4 18 0 7 4 85 6 173 3 157 -4 159 -4 159 17 0 13 -7 22 -17
23 -21 2 -514 4 -516 2z"/>
<path d="M3915 6660 l-170 -5 -3 -167 -2 -168 -98 -1 c-53 0 -127 -3 -164 -5
l-67 -5 -4 48 c-2 26 -4 -54 -5 -179 l-2 -228 -170 0 -170 0 0 -510 0 -510
-175 0 -175 0 0 -350 0 -349 -101 -3 c-112 -3 -105 1 -134 -80 -9 -25 -34 -67
-56 -91 l-39 -45 0 -391 0 -391 -119 0 -119 0 -17 -49 c-8 -27 -31 -74 -50
-106 l-35 -57 -2 -221 -3 -222 -65 -5 c-59 -5 -66 -8 -86 -38 -25 -36 -59
-142 -69 -215 -4 -34 -16 -60 -39 -85 -46 -53 -54 -79 -66 -204 -6 -62 -15
-131 -20 -153 -5 -22 -12 -65 -16 -95 -4 -29 -13 -65 -20 -79 -20 -38 -18 -95
5 -115 24 -22 83 -31 109 -17 12 6 41 39 64 74 23 34 75 94 115 133 l73 71 0
201 0 202 170 0 170 0 0 165 0 165 170 0 170 0 0 180 0 180 116 0 115 0 60 57
59 56 0 94 0 93 74 0 74 0 58 79 c31 44 68 85 81 92 48 26 53 52 53 274 l0
205 175 0 175 0 0 175 0 175 350 0 350 0 0 -175 0 -175 170 0 170 0 0 -176 c0
-199 10 -233 76 -269 38 -20 113 -99 157 -164 16 -23 32 -39 36 -37 4 3 24 1
44 -5 35 -9 37 -12 37 -52 1 -38 8 -50 84 -136 46 -51 92 -98 102 -104 11 -6
48 -13 84 -16 l65 -6 8 -55 c4 -30 11 -90 16 -134 13 -113 23 -120 231 -157
102 -17 100 -15 101 -127 0 -53 6 -119 13 -147 l11 -50 144 -5 c78 -3 147 -3
152 0 4 3 9 156 10 340 2 340 -5 437 -38 545 -32 105 -15 95 -168 95 l-135 0
0 330 0 330 -170 0 -170 0 0 258 c0 141 -3 375 -7 520 l-6 262 -169 0 -168 0
0 180 0 180 -74 0 c-41 0 -87 5 -103 11 l-28 11 23 18 c28 23 28 30 1 30 -12
0 -32 12 -45 26 -13 14 -29 22 -34 19 -6 -3 -10 3 -10 14 0 27 -46 30 -53 4
-3 -10 -5 33 -6 95 l-1 112 70 0 70 0 -10 25 c-14 38 -5 204 14 247 9 21 16
42 16 48 0 6 -33 10 -84 10 -58 0 -86 4 -89 13 -4 10 -6 10 -6 0 -1 -10 -41
-13 -166 -13 l-165 0 -3 163 -3 162 -2 -161 -2 -161 -122 5 c-68 2 -125 6
-128 9 -2 2 2 9 10 14 11 8 7 9 -16 7 -23 -3 -31 -1 -27 9 3 7 0 13 -6 13 -6
0 -11 -5 -11 -11 0 -6 -7 -4 -15 5 -12 11 -15 43 -15 151 l0 136 170 -1 c93
-1 170 1 170 5 0 3 -78 7 -173 8 l-172 2 -5 140 -6 140 -2 -144 -2 -144 -72 6
c-40 4 -115 7 -165 7 l-93 0 0 165 0 166 170 -1 c93 -1 170 1 171 5 1 10 4 10
-176 5z m-187 -373 c5 -16 2 -90 -5 -84 -3 4 -12 -1 -19 -11 -12 -16 -13 -15
-14 8 -1 14 -4 20 -6 13 -11 -26 -164 11 -164 39 0 4 -11 8 -25 8 -14 0 -25 5
-25 10 0 6 -10 11 -22 12 -21 2 226 14 262 13 8 -1 16 -4 18 -8z m347 -109
c-4 -68 -8 -138 -10 -157 -1 -28 -6 -35 -24 -36 -12 -1 -24 2 -27 7 -3 4 2 8
12 8 13 0 15 6 9 38 -8 46 -9 46 -34 30 -16 -10 -23 -10 -33 0 -6 6 -24 12
-39 12 -18 0 -41 14 -68 40 -29 28 -50 40 -70 40 -29 0 -29 1 -33 66 -1 36 -1
68 1 70 2 2 76 4 164 4 l160 0 -8 -122z m-631 77 c-4 -8 -10 -15 -14 -15 -5 0
-11 -17 -13 -37 -3 -34 -4 -33 -5 10 -1 28 2 46 7 42 5 -3 12 -1 16 5 9 15 15
12 9 -5z m-14 -167 c0 -5 -4 -8 -10 -8 -5 0 -10 10 -10 23 0 18 2 19 10 7 5
-8 10 -18 10 -22z m727 -114 c-3 -3 -12 -4 -19 -1 -8 3 -5 6 6 6 11 1 17 -2
13 -5z m272 -46 c-1 -43 -16 -114 -19 -88 -1 14 -4 19 -7 13 -7 -20 -40 -15
-46 6 -3 13 -19 24 -45 31 -23 6 -44 15 -47 20 -3 6 -19 10 -36 10 -16 0 -29
4 -29 9 0 10 51 16 168 19 58 2 62 1 61 -20z m341 -134 l0 -157 -46 7 c-26 3
-98 6 -160 6 l-114 0 0 45 c0 33 4 45 15 45 9 0 15 9 15 25 0 16 -6 25 -15 25
-10 0 -15 10 -15 34 0 18 -3 54 -6 80 l-7 46 167 0 166 0 0 -156z m-217 -181
c-7 -2 -19 -2 -25 0 -7 3 -2 5 12 5 14 0 19 -2 13 -5z m217 -59 c0 -55 -3 -65
-15 -60 -10 3 -15 -1 -16 -12 0 -12 -3 -9 -10 8 -6 13 -13 27 -18 30 -4 3 -13
20 -21 38 -11 28 -11 35 0 42 10 6 8 9 -6 13 -10 2 5 5 34 6 l52 1 0 -66z
m337 -290 c-3 -3 -12 -4 -19 -1 -8 3 -5 6 6 6 11 1 17 -2 13 -5z"/>
<path d="M4473 6303 c9 -2 25 -2 35 0 9 3 1 5 -18 5 -19 0 -27 -2 -17 -5z"/>
<path d="M6923 5455 l0 -175 51 1 c28 1 44 3 35 6 -14 3 -18 28 -25 161 -5 86
-8 163 -7 170 0 7 -11 12 -27 12 l-28 0 1 -175z"/>
<path d="M7540 2755 c0 -160 1 -175 18 -175 14 0 14 2 3 9 -11 7 -12 21 -5 68
13 93 8 273 -8 273 -4 0 -8 -79 -8 -175z"/>
<path d="M3060 2410 l0 -160 170 0 170 0 0 160 0 160 -170 0 -170 0 0 -160z"/>
<path d="M6185 2231 c-22 -9 -21 -1 -17 -209 l2 -103 158 3 157 3 2 146 c2
144 2 147 -20 153 -38 11 -261 17 -282 7z"/>
<path d="M1530 1519 c-59 -35 -90 -78 -90 -125 0 -28 -6 -47 -20 -59 -11 -10
-20 -24 -20 -30 0 -7 -7 -15 -15 -19 -9 -3 -15 -18 -15 -34 0 -25 5 -30 31
-36 40 -8 98 8 133 35 34 27 103 120 122 164 23 57 19 92 -16 110 -39 20 -68
19 -110 -6z"/>
</g>
</svg>
